<svg width="359" height="441" viewBox="0 0 359 441" fill="none" xmlns="http://www.w3.org/2000/svg">
<path d="M337.5 244.5C337.5 246.778 336.403 249.052 334.208 251.306C332.012 253.561 328.746 255.76 324.497 257.87C316 262.09 303.672 265.904 288.398 269.113C257.858 275.528 215.644 279.5 169 279.5C122.356 279.5 80.1418 275.528 49.6017 269.113C34.3276 265.904 22.0001 262.09 13.5033 257.87C9.25393 255.76 5.98843 253.561 3.79163 251.306C1.5966 249.052 0.5 246.778 0.5 244.5C0.5 242.222 1.5966 239.948 3.79163 237.694C5.98843 235.439 9.25393 233.24 13.5033 231.13C22.0001 226.91 34.3276 223.096 49.6017 219.887C80.1418 213.472 122.356 209.5 169 209.5C215.644 209.5 257.858 213.472 288.398 219.887C303.672 223.096 316 226.91 324.497 231.13C328.746 233.24 332.012 235.439 334.208 237.694C336.403 239.948 337.5 242.222 337.5 244.5Z" stroke="black"/>
<path d="M337.5 269.5C337.5 271.778 336.403 274.052 334.208 276.306C332.012 278.561 328.746 280.76 324.497 282.87C316 287.09 303.672 290.904 288.398 294.113C257.858 300.528 215.644 304.5 169 304.5C122.356 304.5 80.1418 300.528 49.6017 294.113C34.3276 290.904 22.0001 287.09 13.5033 282.87C9.25393 280.76 5.98843 278.561 3.79163 276.306C1.5966 274.052 0.5 271.778 0.5 269.5C0.5 267.222 1.5966 264.948 3.79163 262.694C5.98843 260.439 9.25393 258.24 13.5033 256.13C22.0001 251.91 34.3276 248.096 49.6017 244.887C80.1418 238.472 122.356 234.5 169 234.5C215.644 234.5 257.858 238.472 288.398 244.887C303.672 248.096 316 251.91 324.497 256.13C328.746 258.24 332.012 260.439 334.208 262.694C336.403 264.948 337.5 267.222 337.5 269.5Z" stroke="black"/>
<path d="M337.5 294.5C337.5 296.778 336.403 299.052 334.208 301.306C332.012 303.561 328.746 305.76 324.497 307.87C316 312.09 303.672 315.904 288.398 319.113C257.858 325.528 215.644 329.5 169 329.5C122.356 329.5 80.1418 325.528 49.6017 319.113C34.3276 315.904 22.0001 312.09 13.5033 307.87C9.25393 305.76 5.98843 303.561 3.79163 301.306C1.5966 299.052 0.5 296.778 0.5 294.5C0.5 292.222 1.5966 289.948 3.79163 287.694C5.98843 285.439 9.25393 283.24 13.5033 281.13C22.0001 276.91 34.3276 273.096 49.6017 269.887C80.1418 263.472 122.356 259.5 169 259.5C215.644 259.5 257.858 263.472 288.398 269.887C303.672 273.096 316 276.91 324.497 281.13C328.746 283.24 332.012 285.439 334.208 287.694C336.403 289.948 337.5 292.222 337.5 294.5Z" stroke="black"/>
<path d="M237.343 66.6293L237.511 67.5347L238.179 66.9008L285.311 22.177L257.341 80.823L256.945 81.6542L257.858 81.534L322.276 73.0554L265.177 104.061L264.368 104.5L265.177 104.939L322.276 135.945L257.858 127.466L256.945 127.346L257.341 128.177L285.311 186.823L238.179 142.099L237.511 141.465L237.343 142.371L225.5 206.257L213.657 142.371L213.489 141.465L212.821 142.099L165.689 186.823L193.659 128.177L194.055 127.346L193.142 127.466L128.724 135.945L185.823 104.939L186.632 104.5L185.823 104.061L128.724 73.0554L193.142 81.534L194.055 81.6542L193.659 80.823L165.689 22.177L212.821 66.9008L213.489 67.5347L213.657 66.6293L225.5 2.74317L237.343 66.6293Z" stroke="#EA5F38"/>
<path d="M277 223L294.789 268.06L341.11 253.874L316.972 295.877L356.944 323.247L309.055 330.563L312.578 378.879L277 346L241.422 378.879L244.945 330.563L197.056 323.247L237.028 295.877L212.89 253.874L259.211 268.06L277 223Z" fill="#99CF63"/>
<path d="M115.59 352.103L138.887 310L162.371 352.103L205.035 375.135L162.371 398.167L138.887 440.269L115.59 398.167L72.739 375.135L115.59 352.103Z" fill="#19BDCF"/>
<circle cx="152.5" cy="232.5" r="62" fill="black" stroke="black"/>
<ellipse cx="132" cy="219" rx="10" ry="20" fill="white"/>
<ellipse cx="173" cy="219" rx="10" ry="20" fill="white"/>
</svg>
