<svg width="601" height="516" viewBox="0 0 601 516" fill="none" xmlns="http://www.w3.org/2000/svg">
<g clip-path="url(#clip0_1_594)">
<path d="M311.536 433.073L329.137 427.887L324.002 445.538L329.137 463.139L311.536 458.004L293.885 463.139L299.071 445.538L293.885 427.887L311.536 433.073Z" fill="#00AEEF" stroke="white" stroke-miterlimit="10"/>
</g>
<g clip-path="url(#clip1_1_594)">
<path d="M125.485 346.047L156.961 363.197L125.485 380.485L108.266 411.892L91.0473 380.485L59.5713 363.197L91.0473 346.047L108.266 314.502L125.485 346.047Z" fill="#FF1717" stroke="white" stroke-miterlimit="10"/>
</g>
<path d="M565.118 389.872C563.218 393.315 559.68 395.807 554.585 397.352C549.487 398.897 542.875 399.481 534.913 399.138C518.993 398.451 497.791 394.062 472.777 386.406C422.757 371.096 357.595 342.754 289.155 305.004C220.716 267.253 161.983 227.256 122.35 193.114C102.53 176.04 87.5084 160.448 78.4348 147.348C73.8974 140.797 70.864 134.893 69.4522 129.757C68.041 124.623 68.2606 120.301 70.1602 116.857C72.0598 113.413 75.5981 110.922 80.6935 109.377C85.7912 107.831 92.4033 107.247 100.365 107.591C116.285 108.277 137.487 112.666 162.501 120.322C212.521 135.632 277.683 163.974 346.123 201.725C414.562 239.476 473.295 279.473 512.928 313.615C532.748 330.689 547.77 346.281 556.843 359.381C561.381 365.931 564.414 371.835 565.826 376.972C567.237 382.106 567.017 386.428 565.118 389.872Z" stroke="black"/>
<path d="M544.887 426.545C542.988 429.989 539.449 432.48 534.354 434.025C529.256 435.571 522.644 436.155 514.683 435.812C498.762 435.125 477.561 430.736 452.546 423.08C402.526 407.77 337.364 379.428 268.925 341.677C200.485 303.927 141.752 263.93 102.12 229.787C82.3 212.714 67.2779 197.122 58.2043 184.022C53.6669 177.471 50.6335 171.567 49.2217 166.43C47.8105 161.296 48.0302 156.975 49.9298 153.531C51.8294 150.087 55.3676 147.596 60.463 146.051C65.5608 144.505 72.1728 143.921 80.1341 144.264C96.0546 144.951 117.256 149.34 142.271 156.996C192.291 172.306 257.453 200.648 325.892 238.399C394.332 276.149 453.065 316.147 492.698 350.289C512.517 367.363 527.539 382.955 536.613 396.054C541.15 402.605 544.184 408.509 545.595 413.646C547.007 418.78 546.787 423.102 544.887 426.545Z" stroke="black"/>
<path d="M524.659 463.22C522.759 466.663 519.221 469.155 514.126 470.7C509.028 472.246 502.416 472.829 494.454 472.486C478.534 471.799 457.332 467.41 432.318 459.754C382.298 444.445 317.136 416.102 248.696 378.352C180.257 340.601 121.524 300.604 81.891 266.462C62.0715 249.388 47.0494 233.796 37.9758 220.696C33.4384 214.145 30.405 208.241 28.9932 203.105C27.582 197.971 27.8017 193.649 29.7013 190.205C31.6008 186.761 35.1391 184.27 40.2345 182.725C45.3322 181.179 51.9443 180.595 59.9056 180.939C75.8261 181.626 97.0278 186.014 122.042 193.67C172.063 208.98 237.224 237.322 305.664 275.073C374.103 312.824 432.836 352.821 472.469 386.963C492.289 404.037 507.311 419.629 516.384 432.729C520.922 439.279 523.955 445.184 525.367 450.32C526.778 455.454 526.558 459.776 524.659 463.22Z" stroke="black"/>
<circle cx="132.038" cy="105.038" r="15.5" fill="#FCB040"/>
<circle cx="421.538" cy="435.538" r="10" fill="#FCB040"/>
<circle cx="82.0376" cy="65.0383" r="23.5" fill="#19BDCF"/>
<path d="M306.51 384.129C300.206 386.283 293.001 382.013 290.495 374.61L251.497 260.348L274.285 252.553L313.323 366.972C315.829 374.297 312.775 381.974 306.51 384.129Z" fill="black"/>
<path d="M303.103 385.538C301.262 385.538 299.383 385.108 297.582 384.207C293.94 382.405 291.043 379.036 289.633 374.884L250.635 260.622C250.478 260.191 250.713 259.682 251.183 259.525L273.971 251.73C274.206 251.652 274.441 251.652 274.637 251.77C274.833 251.887 274.989 252.044 275.068 252.279L314.105 366.697C316.729 374.453 313.44 382.64 306.744 384.951C305.609 385.343 304.356 385.538 303.103 385.538ZM252.593 260.896L291.317 374.336C292.57 378.057 295.154 381.112 298.365 382.679C300.949 383.932 303.729 384.167 306.235 383.306C312.03 381.308 314.849 374.101 312.5 367.246L273.736 253.65L252.593 260.896Z" fill="black"/>
<path d="M270.251 153.92L196.522 206.527L167.821 236.336L156.544 256.274L156.505 256.431C154.273 259.878 155.566 267.829 159.755 275.938C163.866 283.929 169.661 289.491 173.734 289.804L173.616 289.883L195.269 292.233L235.795 285.77L321.819 254.981L428.752 273.313L429.496 273.352C402.635 268.339 366.377 232.419 340.026 181.614C313.714 130.848 305.334 80.6704 316.885 55.9143H316.846L270.839 152.667L270.251 153.92Z" fill="#FCB040"/>
<path d="M447.267 271.141C473.694 257.411 468.584 195.167 435.853 132.115C403.121 69.0632 355.164 29.0798 328.736 42.8097C302.309 56.5396 307.419 118.784 340.15 181.836C372.882 244.888 420.839 284.871 447.267 271.141Z" fill="white"/>
<path d="M435.644 274.724C424.132 274.724 410.271 268.3 395.353 255.804C375.031 238.804 355.101 212.598 339.243 181.967C315.241 135.588 305.335 88.0347 314.027 60.8109C316.925 51.7232 321.78 45.3775 328.397 41.9697C341.554 35.2322 360.074 40.9512 380.591 58.1081C400.913 75.1083 420.843 101.314 436.701 131.945C460.742 178.324 470.648 225.877 461.917 253.101C459.019 262.189 454.164 268.535 447.547 271.943C443.984 273.823 439.99 274.724 435.644 274.724ZM340.379 40.9512C336.346 40.9512 332.587 41.7738 329.22 43.5365C322.994 46.7093 318.452 52.7417 315.711 61.3985C307.136 88.2306 317.003 135.275 340.81 181.262C373.23 243.818 420.765 283.85 446.803 270.493C453.028 267.32 457.57 261.288 460.311 252.631C468.886 225.799 459.019 178.755 435.213 132.768C406.982 78.3203 367.357 40.9512 340.379 40.9512Z" fill="black"/>
<path d="M435.644 274.724C424.132 274.724 410.271 268.299 395.353 255.804C375.031 238.804 355.101 212.598 339.243 181.967C315.241 135.588 305.335 88.0346 314.027 60.8108C316.925 51.7231 321.78 45.3774 328.397 41.9696C337.207 37.4257 348.719 38.5617 361.679 45.2208C374.092 51.6056 387.522 62.926 400.6 77.9285C400.913 78.2811 400.874 78.8295 400.521 79.1428C400.169 79.4562 399.621 79.417 399.307 79.0645C372.76 48.5895 345.9 34.958 329.22 43.5364C322.994 46.7093 318.452 52.7416 315.711 61.3984C307.136 88.2305 317.003 135.275 340.81 181.262C369.001 235.67 408.666 273.078 435.604 273.078C439.637 273.078 443.396 272.256 446.764 270.493C452.989 267.32 457.531 261.288 460.272 252.631C468.847 225.799 458.98 178.755 435.174 132.768C428.087 119.058 420.099 106.171 411.524 94.4587C411.25 94.067 411.328 93.5186 411.72 93.2444C412.111 92.9702 412.659 93.0485 412.934 93.4402C421.587 105.231 429.575 118.196 436.74 131.984C460.742 178.324 470.648 225.877 461.917 253.101C459.019 262.189 454.164 268.535 447.547 271.942C443.984 273.823 439.99 274.724 435.644 274.724Z" fill="black"/>
<path d="M387.304 190.877C393.426 187.696 392.249 173.289 384.674 158.697C377.099 144.105 365.995 134.855 359.873 138.035C353.751 141.216 354.928 155.623 362.503 170.215C370.078 184.807 381.182 194.058 387.304 190.877Z" fill="#FCB040"/>
<path d="M384.624 192.386C377.89 192.386 368.493 183.69 361.719 170.568C356.08 159.678 353.77 148.476 355.845 142.012C356.589 139.74 357.803 138.134 359.487 137.273C366.143 133.865 377.537 143.148 385.447 158.386C391.085 169.275 393.395 180.478 391.32 186.941C390.576 189.213 389.362 190.819 387.679 191.681C386.739 192.151 385.721 192.386 384.624 192.386ZM362.541 138.252C361.719 138.252 360.936 138.409 360.27 138.761C358.978 139.427 358.038 140.681 357.451 142.522C355.532 148.554 357.764 159.287 363.207 169.785C370.411 183.69 381.257 193.052 386.856 190.153C388.148 189.488 389.088 188.234 389.676 186.393C391.594 180.322 389.323 169.628 383.92 159.13C377.577 146.948 368.493 138.252 362.541 138.252Z" fill="#FCB040"/>
<path d="M429.692 260.113C419.59 260.113 407.452 254.472 394.374 243.543C376.598 228.658 359.135 205.704 345.274 178.911C324.247 138.33 315.594 96.6913 323.19 72.8362C325.735 64.8453 330.003 59.283 335.837 56.2668C349.228 49.4119 368.923 57.3245 389.911 77.9676C390.263 78.3201 390.263 78.8293 389.911 79.1819C389.558 79.5344 389.049 79.5344 388.697 79.1819C368.258 59.0872 349.267 51.253 336.62 57.7945C331.217 60.5756 327.262 65.7854 324.835 73.3454C317.356 96.7696 325.97 137.899 346.801 178.128C371.429 225.721 406.082 258.389 429.653 258.389C433.177 258.389 436.427 257.645 439.403 256.156C444.806 253.375 448.761 248.165 451.188 240.605C458.667 217.181 450.053 176.052 429.222 135.823C422.918 123.68 415.87 112.281 408.274 101.979C408 101.588 408.079 101.039 408.47 100.765C408.862 100.491 409.41 100.569 409.684 100.961C417.358 111.38 424.445 122.818 430.789 135.04C451.815 175.621 460.468 217.26 452.872 241.115C450.327 249.106 446.059 254.668 440.225 257.684C437.014 259.29 433.49 260.113 429.692 260.113Z" fill="black"/>
<path d="M195.309 293.056C195.27 293.056 195.231 293.056 195.231 293.056L173.578 290.705C173.46 290.705 173.343 290.666 173.225 290.588C168.762 289.883 163.123 284.242 159.012 276.33C154.627 267.986 153.334 259.839 155.723 256L155.762 255.882L167.039 235.905C167.078 235.827 167.117 235.788 167.156 235.749L195.857 205.939C195.896 205.9 195.935 205.861 195.974 205.822L269.508 153.333L316.024 55.5228C316.142 55.327 316.299 55.1703 316.533 55.092C316.768 55.0136 317.003 55.0136 317.199 55.1311C317.63 55.327 317.826 55.8362 317.63 56.2671C305.844 81.5324 315.163 131.75 340.771 181.183C366.417 230.695 402.166 267.359 429.692 272.413C430.123 272.491 430.436 272.883 430.397 273.353C430.358 273.784 429.966 274.097 429.535 274.136L428.792 274.097C428.752 274.097 428.713 274.097 428.674 274.097L321.937 255.804L236.109 286.514C236.069 286.514 235.991 286.553 235.952 286.553L195.426 293.016C195.387 293.056 195.348 293.056 195.309 293.056ZM174.204 289.06L195.309 291.332L235.639 284.869L321.624 254.12C321.78 254.081 321.898 254.041 322.054 254.081L418.141 270.532C392.181 259.134 361.836 225.486 339.322 182.006C316.964 138.84 306.98 95.0072 312.461 67.3133L271.035 154.273C270.957 154.39 270.878 154.508 270.761 154.586L197.11 207.193L168.527 236.845L157.25 256.822C157.25 256.862 157.211 256.901 157.211 256.901C155.175 260.074 156.545 267.908 160.5 275.546C164.376 283.028 169.975 288.668 173.813 288.943C173.969 288.943 174.087 288.982 174.204 289.06Z" fill="black"/>
<path d="M270.368 153.607L316.845 55.8752H316.884C305.333 80.6313 313.752 130.809 340.025 181.575C366.377 232.419 402.634 268.339 429.573 273.274L428.829 273.235L322.053 254.942L319.586 254.511C307.174 252.318 290.611 236.179 278.747 213.147C266.57 189.527 264.416 165.985 269.82 154.782L270.368 153.607Z" fill="white"/>
<path d="M429.573 274.136C429.534 274.136 429.573 274.136 429.573 274.136L428.79 274.097C428.751 274.097 428.712 274.097 428.673 274.097L321.896 255.804L319.43 255.373C306.313 253.062 289.672 236.258 277.964 213.578C264.691 187.803 264.025 164.849 269.037 154.429L269.624 153.254L316.102 55.5619C316.219 55.366 316.376 55.2094 316.611 55.131C316.845 55.0527 317.08 55.0527 317.276 55.1702C317.707 55.366 317.903 55.8753 317.707 56.3061C305.921 81.5714 315.24 131.789 340.848 181.222C366.494 230.735 402.243 267.399 429.769 272.452C430.2 272.53 430.513 272.922 430.474 273.392C430.356 273.783 430.004 274.136 429.573 274.136ZM312.382 67.3132L271.151 153.999L270.564 155.174C265.591 165.515 267.04 188.626 279.491 212.755C290.964 235.004 307.135 251.456 319.743 253.65L322.21 254.08L418.101 270.532C392.141 259.133 361.796 225.486 339.281 182.006C316.924 138.839 306.939 95.0071 312.382 67.3132Z" fill="black"/>
<path d="M194.134 292.938C194.095 292.938 194.055 292.938 194.055 292.938L173.538 290.744C173.421 290.744 173.303 290.705 173.186 290.627C168.722 289.922 163.084 284.281 158.972 276.369C154.626 267.986 153.334 259.838 155.722 256L155.762 255.882L167.038 235.905C167.273 235.474 167.782 235.357 168.213 235.592C168.644 235.827 168.761 236.336 168.526 236.767L157.249 256.822C157.249 256.861 157.21 256.901 157.21 256.901C155.174 260.074 156.545 267.908 160.499 275.546C164.376 283.028 169.975 288.668 173.812 288.943C173.93 288.943 174.086 288.982 174.165 289.06L194.212 291.214C194.682 291.254 195.034 291.684 194.956 292.155C194.917 292.585 194.564 292.938 194.134 292.938Z" fill="black"/>
<path d="M195.504 292.076C188.847 291.606 179.529 282.166 172.755 269.122C165.589 255.295 163.906 240.998 168.291 235.905L156.584 256.274L156.505 256.431C154.273 259.878 155.566 267.83 159.755 275.938C163.866 283.929 169.661 289.491 173.734 289.805L173.616 289.883L195.504 292.076Z" fill="white"/>
<path d="M195.504 292.938C195.465 292.938 195.465 292.938 195.426 292.938C195.269 292.938 195.073 292.899 194.917 292.899L173.538 290.745C173.421 290.745 173.303 290.705 173.186 290.627C168.722 289.922 163.084 284.281 158.972 276.369C154.626 267.986 153.334 259.839 155.722 256L155.762 255.882L166.059 237.942C166.451 236.924 166.96 236.023 167.586 235.278C167.861 234.926 168.37 234.887 168.722 235.122C169.074 235.396 169.192 235.866 168.957 236.258L167.508 238.726C165.198 244.954 167.469 257.175 173.421 268.613C179.881 281.109 188.691 290.235 194.995 291.058L195.465 291.097C195.935 291.136 196.287 291.567 196.248 292.037C196.287 292.586 195.935 292.938 195.504 292.938ZM174.165 289.06L189.122 290.588C183.366 286.906 177.023 279.307 171.972 269.514C167.077 260.074 164.65 250.281 165.041 243.23L157.249 256.822C157.249 256.862 157.21 256.901 157.21 256.901C155.174 260.074 156.545 267.908 160.499 275.546C164.376 283.028 169.975 288.668 173.812 288.943C173.93 288.943 174.086 288.982 174.165 289.06Z" fill="black"/>
<path d="M234.345 285.926L236.068 285.574C226.749 287.532 212.027 273.431 201.651 253.414C191.04 232.967 189.043 212.559 196.561 206.527L195.582 207.506L168.369 235.787C163.905 240.801 165.55 255.177 172.754 269.083C179.685 282.479 189.513 292.037 196.208 291.998L234.345 285.926Z" fill="black"/>
<path d="M196.17 292.899C189.044 292.899 179.137 283.302 171.972 269.514C164.689 255.412 162.849 240.684 167.704 235.239L194.408 207.506C194.878 206.879 195.426 206.331 196.013 205.861C196.366 205.587 196.875 205.626 197.188 205.939C197.501 206.292 197.501 206.801 197.188 207.114L195.661 208.72C190.218 216.006 192.92 234.652 202.435 253.023C212.693 272.843 227.024 286.436 235.795 284.79L235.912 284.751C236.382 284.673 236.813 284.947 236.931 285.417C237.009 285.887 236.735 286.318 236.265 286.436C236.226 286.436 236.187 286.436 236.147 286.475L234.542 286.788H234.503L196.366 292.86C196.287 292.86 196.209 292.899 196.17 292.899ZM192.137 212.363L168.996 236.414C164.689 241.271 166.647 255.451 173.538 268.73C180.273 281.735 189.788 291.136 196.17 291.175L229.843 285.809C220.759 282.597 209.561 270.493 200.908 253.845C192.685 237.981 189.514 221.843 192.137 212.363Z" fill="black"/>
<path d="M359.879 138.017C353.731 141.151 354.632 155.683 362.463 170.176C375.58 194.423 386.034 191.564 387.248 191.133C387.287 191.133 387.287 191.172 387.248 191.172L364.734 209.308C358.117 200.025 351.813 189.683 346.018 178.52C340.497 167.826 335.837 157.171 332.157 146.83L359.879 138.017Z" fill="black"/>
<path d="M364.734 210.17C364.695 210.17 364.655 210.17 364.616 210.17C364.381 210.131 364.186 210.013 364.029 209.817C357.255 200.299 350.951 189.879 345.274 178.951C339.831 168.453 335.132 157.759 331.373 147.183C331.295 146.948 331.295 146.713 331.413 146.517C331.53 146.321 331.687 146.164 331.922 146.086L359.643 137.273C360.074 137.155 360.544 137.351 360.701 137.782C360.857 138.213 360.701 138.683 360.309 138.879C358.978 139.545 357.999 140.876 357.412 142.835C355.493 148.985 357.842 159.874 363.285 169.863C376.089 193.522 385.956 190.819 387.013 190.428C387.405 190.271 387.874 190.467 388.07 190.819C388.266 191.172 388.188 191.681 387.874 191.955L365.282 209.974C365.125 210.091 364.929 210.17 364.734 210.17ZM333.292 147.379C337.012 157.602 341.554 167.943 346.801 178.128C352.282 188.704 358.391 198.771 364.929 208.055L384.468 192.308C380.004 192.112 371.586 188.782 361.719 170.568C356.002 160.031 353.653 148.906 355.728 142.208C356.002 141.346 356.315 140.602 356.707 139.897L333.292 147.379Z" fill="black"/>
<path d="M475.724 82.1357C493.624 72.732 500.547 50.6542 491.188 32.8235C481.828 14.9929 459.729 8.16144 441.829 17.5651C423.929 26.9688 417.006 49.0467 426.366 66.8773C435.725 84.708 457.824 91.5394 475.724 82.1357Z" fill="black"/>
<path d="M442.105 41.7735C443.828 39.4233 446.373 37.9739 449.27 37.6606C451.463 37.4256 453.499 37.8956 455.418 39.0707C456.396 39.6583 457.258 40.4026 458.08 41.3035C458.667 40.2459 459.372 39.3058 460.194 38.5223C461.8 36.9555 463.718 36.0546 465.872 35.8195C468.769 35.5062 471.589 36.3679 473.781 38.2873C475.935 40.1675 477.305 42.9095 477.658 46.004C478.01 49.1769 477.149 52.2322 474.956 55.6009C472.998 58.6171 470.022 61.7507 466.577 65.4328C465.402 66.6863 464.071 68.0964 462.7 69.5849C462.348 69.9766 461.839 70.2508 461.291 70.29C460.743 70.3684 460.234 70.2117 459.764 69.8983C458.08 68.7232 456.475 67.6264 455.065 66.6863C450.915 63.866 447.312 61.4374 444.728 58.9304C441.831 56.1493 440.343 53.329 439.99 50.1561C439.677 47.0616 440.421 44.0846 442.105 41.7735Z" fill="white"/>
<path d="M577.273 84.1306C590.377 71.021 590.377 49.7661 577.273 36.6565C564.168 23.547 542.922 23.5469 529.818 36.6565C516.713 49.7661 516.713 71.021 529.818 84.1306C542.922 97.2402 564.168 97.2402 577.273 84.1306Z" fill="#FCB040"/>
<path d="M553.539 94.8113C534.588 94.8113 519.122 79.3779 519.122 60.38C519.122 41.4213 534.549 25.9487 553.539 25.9487C572.529 25.9487 587.957 41.3821 587.957 60.38C587.957 79.3388 572.529 94.8113 553.539 94.8113ZM553.539 27.6723C535.528 27.6723 520.844 42.3222 520.844 60.38C520.844 78.3987 535.488 93.0878 553.539 93.0878C571.55 93.0878 586.234 78.4378 586.234 60.38C586.234 42.3614 571.59 27.6723 553.539 27.6723Z" fill="#FCB040"/>
<path d="M562.623 63.7097C560.743 63.7097 559.099 64.6106 558.002 66.0207L546.686 61.5944C546.686 61.4377 546.726 61.3202 546.726 61.1635C546.726 60.8893 546.686 60.6151 546.647 60.3409L558.237 54.9745C559.294 56.1888 560.861 56.9722 562.623 57.0114C565.833 57.0114 568.496 54.387 568.496 51.1358C568.496 47.8846 565.872 45.2209 562.623 45.2209C559.412 45.2209 556.749 47.8454 556.749 51.0966C556.749 51.3708 556.788 51.645 556.828 51.9192L545.238 57.2856C544.18 56.0713 542.614 55.2879 540.852 55.2487C537.642 55.2487 534.979 57.8732 534.979 61.1244C534.979 64.3756 537.602 67.0392 540.852 67.0392C542.732 67.0392 544.376 66.1382 545.473 64.7281L556.789 69.1544C556.789 69.3111 556.749 69.4286 556.749 69.5853C556.749 72.8365 559.373 75.5001 562.623 75.5001C565.833 75.5001 568.496 72.8757 568.496 69.6245C568.457 66.3733 565.833 63.7488 562.623 63.7097Z" fill="black"/>
<path d="M563.067 190.531C578.434 179.861 582.294 158.821 571.69 143.537C561.086 128.253 540.032 124.513 524.666 135.183C509.299 145.853 505.439 166.893 516.043 182.177C526.647 197.461 547.701 201.201 563.067 190.531Z" fill="black"/>
<path d="M535.412 178.911L530.478 152.158C530.243 150.787 531.496 149.651 532.828 150.003L561.998 158.268C563.486 158.699 563.839 160.618 562.625 161.559L538.348 180.047C537.291 180.909 535.686 180.321 535.412 178.911Z" fill="white"/>
<path d="M543.536 300.12C562.512 290.878 570.453 268.091 561.271 249.224C552.09 230.357 529.264 222.554 510.288 231.796C491.312 241.037 483.371 263.824 492.552 282.691C501.734 301.559 524.56 309.362 543.536 300.12Z" fill="#FCB040"/>
<path d="M526.718 304.885C522.646 304.885 518.496 304.258 514.463 302.887C504.596 299.597 496.608 292.703 491.988 283.38C487.367 274.097 486.662 263.56 489.991 253.689C496.882 233.359 519.044 222.273 539.444 229.05C549.311 232.34 557.298 239.235 561.919 248.557C566.539 257.841 567.244 268.378 563.916 278.249C558.356 294.544 543.046 304.885 526.718 304.885ZM527.11 228.815C511.487 228.815 496.843 238.686 491.557 254.276C488.385 263.716 489.051 273.783 493.475 282.636C497.9 291.528 505.535 298.148 514.972 301.281C534.471 307.745 555.654 297.168 562.232 277.74C565.404 268.299 564.738 258.232 560.313 249.38C555.889 240.488 548.254 233.868 538.817 230.734C534.941 229.403 530.986 228.815 527.11 228.815Z" fill="black"/>
<path d="M546.376 259.799C545.984 269.318 529.891 291.567 526.054 296.777C525.662 297.325 524.84 297.286 524.488 296.698C522.06 292.781 514.033 279.62 509.844 268.965C508.16 264.735 507.103 260.896 507.22 258.193C507.651 247.382 516.774 238.96 527.581 239.391C538.388 239.901 546.806 248.988 546.376 259.799Z" fill="black"/>
<path d="M533.131 265.365C536.632 261.862 536.632 256.182 533.131 252.679C529.629 249.176 523.952 249.176 520.45 252.679C516.948 256.182 516.948 261.862 520.45 265.365C523.952 268.868 529.629 268.868 533.131 265.365Z" fill="#FCB040"/>
<defs>
<clipPath id="clip0_1_594">
<rect width="36" height="36" fill="white" transform="translate(293.538 427.538)"/>
</clipPath>
<clipPath id="clip1_1_594">
<rect width="70.3259" height="70.3259" fill="white" transform="translate(108.266 313.538) rotate(45)"/>
</clipPath>
</defs>
</svg>
