<svg width="222" height="85" viewBox="0 0 222 85" fill="none" xmlns="http://www.w3.org/2000/svg">
<path d="M7.19951 59V29.24H14.6395V32.48H15.7195C16.2395 31.48 17.0995 30.62 18.2995 29.9C19.4995 29.14 21.0795 28.76 23.0395 28.76C25.1595 28.76 26.8595 29.18 28.1395 30.02C29.4195 30.82 30.3995 31.88 31.0795 33.2H32.1595C32.8395 31.92 33.7995 30.86 35.0395 30.02C36.2795 29.18 38.0395 28.76 40.3195 28.76C42.1595 28.76 43.8195 29.16 45.2995 29.96C46.8195 30.72 48.0195 31.9 48.8995 33.5C49.8195 35.06 50.2795 37.04 50.2795 39.44V59H42.7195V39.98C42.7195 38.34 42.2995 37.12 41.4595 36.32C40.6195 35.48 39.4395 35.06 37.9195 35.06C36.1995 35.06 34.8595 35.62 33.8995 36.74C32.9795 37.82 32.5195 39.38 32.5195 41.42V59H24.9595V39.98C24.9595 38.34 24.5395 37.12 23.6995 36.32C22.8595 35.48 21.6795 35.06 20.1595 35.06C18.4395 35.06 17.0995 35.62 16.1395 36.74C15.2195 37.82 14.7595 39.38 14.7595 41.42V59H7.19951ZM72.029 59.84C69.069 59.84 66.449 59.22 64.169 57.98C61.929 56.7 60.169 54.92 58.889 52.64C57.649 50.32 57.029 47.6 57.029 44.48V43.76C57.029 40.64 57.649 37.94 58.889 35.66C60.129 33.34 61.869 31.56 64.109 30.32C66.349 29.04 68.949 28.4 71.909 28.4C74.829 28.4 77.369 29.06 79.529 30.38C81.689 31.66 83.369 33.46 84.569 35.78C85.769 38.06 86.369 40.72 86.369 43.76V46.34H64.709C64.789 48.38 65.549 50.04 66.989 51.32C68.429 52.6 70.189 53.24 72.269 53.24C74.389 53.24 75.949 52.78 76.949 51.86C77.949 50.94 78.709 49.92 79.229 48.8L85.409 52.04C84.849 53.08 84.029 54.22 82.949 55.46C81.909 56.66 80.509 57.7 78.749 58.58C76.989 59.42 74.749 59.84 72.029 59.84ZM64.769 40.7H78.689C78.529 38.98 77.829 37.6 76.589 36.56C75.389 35.52 73.809 35 71.849 35C69.809 35 68.189 35.52 66.989 36.56C65.789 37.6 65.049 38.98 64.769 40.7ZM93.0979 59V17H100.658V32.9H101.738C102.058 32.26 102.558 31.62 103.238 30.98C103.918 30.34 104.818 29.82 105.938 29.42C107.098 28.98 108.558 28.76 110.318 28.76C112.638 28.76 114.658 29.3 116.378 30.38C118.138 31.42 119.498 32.88 120.458 34.76C121.418 36.6 121.898 38.76 121.898 41.24V59H114.338V41.84C114.338 39.6 113.778 37.92 112.658 36.8C111.578 35.68 110.018 35.12 107.978 35.12C105.658 35.12 103.858 35.9 102.578 37.46C101.298 38.98 100.658 41.12 100.658 43.88V59H93.0979ZM143.631 59.84C140.671 59.84 138.051 59.22 135.771 57.98C133.531 56.7 131.771 54.92 130.491 52.64C129.251 50.32 128.631 47.6 128.631 44.48V43.76C128.631 40.64 129.251 37.94 130.491 35.66C131.731 33.34 133.471 31.56 135.711 30.32C137.951 29.04 140.551 28.4 143.511 28.4C146.431 28.4 148.971 29.06 151.131 30.38C153.291 31.66 154.971 33.46 156.171 35.78C157.371 38.06 157.971 40.72 157.971 43.76V46.34H136.311C136.391 48.38 137.151 50.04 138.591 51.32C140.031 52.6 141.791 53.24 143.871 53.24C145.991 53.24 147.551 52.78 148.551 51.86C149.551 50.94 150.311 49.92 150.831 48.8L157.011 52.04C156.451 53.08 155.631 54.22 154.551 55.46C153.511 56.66 152.111 57.7 150.351 58.58C148.591 59.42 146.351 59.84 143.631 59.84ZM136.371 40.7H150.291C150.131 38.98 149.431 37.6 148.191 36.56C146.991 35.52 145.411 35 143.451 35C141.411 35 139.791 35.52 138.591 36.56C137.391 37.6 136.651 38.98 136.371 40.7ZM164.7 59V29.24H172.14V32.6H173.22C173.66 31.4 174.38 30.52 175.38 29.96C176.42 29.4 177.62 29.12 178.98 29.12H182.58V35.84H178.86C176.94 35.84 175.36 36.36 174.12 37.4C172.88 38.4 172.26 39.96 172.26 42.08V59H164.7ZM191.729 71V64.4H207.929C209.049 64.4 209.609 63.8 209.609 62.6V55.1H208.529C208.209 55.78 207.709 56.46 207.029 57.14C206.349 57.82 205.429 58.38 204.269 58.82C203.109 59.26 201.629 59.48 199.829 59.48C197.509 59.48 195.469 58.96 193.709 57.92C191.989 56.84 190.649 55.36 189.689 53.48C188.729 51.6 188.249 49.44 188.249 47V29.24H195.809V46.4C195.809 48.64 196.349 50.32 197.429 51.44C198.549 52.56 200.129 53.12 202.169 53.12C204.489 53.12 206.289 52.36 207.569 50.84C208.849 49.28 209.489 47.12 209.489 44.36V29.24H217.049V64.28C217.049 66.32 216.449 67.94 215.249 69.14C214.049 70.38 212.449 71 210.449 71H191.729Z" fill="#3A1A94"/>
<circle cx="8" cy="8" r="8" transform="matrix(-0.997564 0.0697565 0.0697565 0.997564 57.4224 67.4612)" fill="#FCB040"/>
<circle cx="8" cy="8" r="8" transform="matrix(-0.997564 0.0697565 0.0697565 0.997564 36.4224 67.4612)" fill="#ED217C"/>
<circle cx="8" cy="8" r="8" transform="matrix(-1 0 0 1 16 67.9998)" fill="#00AEEF"/>
</svg>
